HIERARCHY
ROOT hip
{
	OFFSET 0.000000 0.000000 0.000000 
	CHANNELS 6 Xposition Yposition Zposition Xrotation Zrotation Yrotation
	JOINT abdomen
	{
		OFFSET 0.000000 3.402643 0.000000 
		CHANNELS 3 Xrotation Zrotation Yrotation
		JOINT chest
		{
			OFFSET 0.000000 8.438565 -0.680529 
			CHANNELS 3 Xrotation Zrotation Yrotation
			JOINT neck
			{
				OFFSET 0.000000 10.207942 -0.272212 
				CHANNELS 3 Xrotation Zrotation Yrotation
				JOINT head
				{
					OFFSET 0.000000 3.130431 0.000000 
					CHANNELS 3 Xrotation Zrotation Yrotation
					End Site
					{
						OFFSET 0.000000 3.130435 0.000000 
					}
				}
			}
			JOINT lCollar
			{
				OFFSET 3.470700 6.669187 -0.816635 
				CHANNELS 3 Yrotation Zrotation Xrotation
				JOINT lShldr
				{
					OFFSET 3.198488 0.000000 0.000000 
					CHANNELS 3 Zrotation Yrotation Xrotation
					JOINT lForeArm
					{
						OFFSET 10.139888 0.000000 0.000000 
						CHANNELS 3 Yrotation Zrotation Xrotation
						JOINT lHand
						{
							OFFSET 8.370511 0.000000 0.000000 
							CHANNELS 3 Zrotation Yrotation Xrotation
							End Site
							{
								OFFSET 4.083176 0.000000 0.000000 
							}
						}
					}
				}
			}
			JOINT rCollar
			{
				OFFSET -3.470700 6.669187 -0.816635 
				CHANNELS 3 Yrotation Zrotation Xrotation
				JOINT rShldr
				{
					OFFSET -3.198488 0.000000 0.000000 
					CHANNELS 3 Zrotation Yrotation Xrotation
					JOINT rForeArm
					{
						OFFSET -10.139888 0.000000 0.000000 
						CHANNELS 3 Yrotation Zrotation Xrotation
						JOINT rHand
						{
							OFFSET -8.370511 0.000000 0.000000 
							CHANNELS 3 Zrotation Yrotation Xrotation
							End Site
							{
								OFFSET -4.083176 0.000000 0.000000 
							}
						}
					}
				}
			}
		}
	}
	JOINT lThigh
	{
		OFFSET 5.308129 -1.633274 1.361059 
		CHANNELS 3 Xrotation Zrotation Yrotation
		JOINT lShin
		{
			OFFSET -2.041588 -20.007561 0.000000 
			CHANNELS 3 Xrotation Zrotation Yrotation
			JOINT lFoot
			{
				OFFSET 0.000000 -19.190928 -1.224953 
				CHANNELS 3 Xrotation Yrotation Zrotation
				End Site
				{
					OFFSET 0.000000 -2.449906 4.627600 
				}
			}
		}
	}
	JOINT rThigh
	{
		OFFSET -5.308129 -1.633274 1.361059 
		CHANNELS 3 Xrotation Zrotation Yrotation
		JOINT rShin
		{
			OFFSET 2.041588 -20.007561 0.000000 
			CHANNELS 3 Xrotation Zrotation Yrotation
			JOINT rFoot
			{
				OFFSET 0.000000 -19.190928 -1.224953 
				CHANNELS 3 Xrotation Yrotation Zrotation
				End Site
				{
					OFFSET 0.000000 -2.449906 4.627600 
				}
			}
		}
	}
}
MOTION
Frames: 13
Frame Time: 0.016667
-2.111693 73.003548 12.046233 -12.576370 -3.682943 -8.181588 32.381062 -1.033401 -1.956977 -4.922231 1.005663 -1.738450 -26.360403 -1.612526 0.570023 0.488148 -5.308661 -17.872211 11.689847 30.000000 2.922146 34.574936 -36.306660 -45.000000 -42.357971 5.000000 -37.337799 -22.134192 30.000000 31.229893 -4.386935 -30.000000 2.024847 -45.469296 28.001125 -45.000000 44.872173 -5.000000 -18.539120 14.571526 -26.979343 1.699699 18.971363 10.976752 20.360258 10.835415 -8.143623 -1.940859 21.367170 0.124132 -9.920060 10.510641 -0.993942 9.832945 12.622633 5.141104 1.442248 -22.036407 -1.013299 4.942802 
-3.109898 72.990547 11.980947 -12.360655 -2.949800 -7.969980 32.409973 -2.346658 -2.444037 -4.914387 0.527206 -2.011754 -26.462435 -1.875554 0.659160 0.426086 -5.426003 -18.877167 14.129417 30.000000 2.930345 36.697739 -36.685402 -45.000000 -40.908520 5.000000 -39.190548 -21.298248 30.000000 33.914066 -5.249445 -30.000000 2.055584 -44.342159 26.187082 -45.000000 44.430874 -5.000000 -18.290461 20.746744 -25.314020 -5.877856 18.791592 10.663245 20.067200 10.372712 -8.153931 -1.813656 21.310331 0.526794 -9.841459 11.060348 -0.369798 8.044043 11.328963 4.792054 1.228738 -22.126059 0.579337 4.498898 
-4.051188 73.039101 11.852442 -12.000286 -2.572186 -8.035856 32.443081 -3.086689 -2.702890 -4.896413 0.156203 -2.138667 -26.618608 -2.333999 0.827531 0.354838 -5.385918 -19.258884 16.161963 30.000000 2.901565 37.673740 -36.450516 -45.000000 -39.571518 5.000000 -40.845402 -20.929293 30.000000 34.366665 -5.376359 -30.000000 2.106715 -43.423264 25.083315 -45.000000 41.355846 -5.000000 -21.406391 26.508841 -27.052748 -8.237550 18.591265 10.566255 20.395365 9.941526 -8.081378 -1.761697 21.745369 0.402045 -9.763410 11.470819 0.488579 6.061017 10.008168 4.451321 1.011027 -21.024052 2.353753 4.731709 
-4.992361 73.087685 11.723917 -11.651931 -2.185026 -8.101692 32.496998 -3.830690 -2.953223 -4.886903 -0.214769 -2.275417 -26.777426 -2.790939 1.006058 0.290518 -5.336201 -19.649414 18.194181 30.000000 2.866050 38.637146 -36.195816 -45.000000 -38.192528 5.000000 -42.551468 -20.600868 30.000000 34.792183 -5.492532 -30.000000 2.158118 -42.518188 23.973232 -45.000000 38.238884 -5.000000 -24.687235 32.476974 -28.395979 -10.686444 18.396393 10.478540 20.726738 9.512867 -8.029864 -1.750524 22.129436 0.199573 -9.718834 11.844691 1.348096 4.072241 8.672577 4.108459 0.810968 -19.924688 4.207316 4.950967 
-5.847494 73.167610 11.553405 -11.218920 -1.819398 -7.699471 32.586479 -4.425498 -3.143979 -4.762343 -0.478338 -2.343858 -27.023214 -3.144576 1.148848 0.079158 -5.310114 -20.424374 20.108227 30.000000 2.837957 39.375740 -36.141705 -45.000000 -37.049778 5.000000 -44.222343 -20.517139 30.000000 34.848083 -5.963438 -30.000000 2.188833 -41.012142 22.770849 -45.000000 33.885468 -5.000000 -29.602505 36.077065 -30.000000 -10.499229 17.914646 10.506983 20.218222 9.059810 -8.000780 -1.689152 22.361872 -0.016970 -9.573115 11.840933 2.021128 3.216704 7.463646 4.174606 0.734213 -18.488876 4.819511 4.831955 
-6.645095 73.268448 11.354900 -10.728904 -1.463671 -6.984871 32.711338 -4.947863 -3.275952 -4.571086 -0.683336 -2.363402 -27.307787 -3.420949 1.279969 -0.222723 -5.283038 -21.453760 21.943197 30.000000 2.817182 39.962864 -36.221325 -45.000000 -36.009136 5.000000 -45.000000 -20.559238 30.000000 34.667561 -6.658221 -30.000000 2.203726 -39.189186 21.436190 -45.000000 28.733473 -5.000000 -35.791088 37.981937 -30.000000 -8.608115 17.249765 10.555858 19.119431 8.557596 -7.987901 -1.566664 22.315567 -0.179122 -9.300324 11.628552 2.577894 3.159628 6.313601 4.497711 0.689528 -16.849657 4.597426 4.471859 
-7.418739 73.385727 11.150632 -10.262205 -1.097119 -6.173170 32.867096 -5.429760 -3.424887 -4.360745 -0.859039 -2.422134 -27.583441 -3.687638 1.409640 -0.490535 -5.245484 -22.472473 23.615807 30.000000 2.779977 40.389675 -36.268646 -45.000000 -34.982571 5.000000 -45.000000 -20.662451 30.000000 34.183552 -7.210662 -30.000000 2.208267 -37.119614 20.262951 -45.000000 23.917355 -5.000000 -42.425491 39.774242 -30.000000 -6.929853 16.580671 10.615450 17.912903 8.001718 -7.972670 -1.496113 22.444323 -0.359663 -9.200250 11.383311 3.095110 3.031859 5.195312 4.794014 0.630274 -15.034362 4.356086 4.201926 
-8.096394 73.568657 10.923470 -9.871913 -0.690782 -4.941870 33.093452 -5.746862 -3.635098 -4.103637 -0.917565 -2.568611 -27.790482 -3.906030 1.532017 -0.621934 -5.127188 -23.449612 24.639917 30.000000 2.723689 40.135490 -36.207150 -45.000000 -34.233727 5.000000 -45.000000 -20.913151 29.567659 32.558617 -7.224125 -30.000000 2.187821 -33.674419 19.821381 -45.000000 19.849897 -5.000000 -45.000000 41.314457 -30.000000 -5.764048 15.916885 10.644894 16.222544 7.242107 -7.915536 -1.372583 22.797951 -0.491056 -9.500949 11.051900 3.339195 2.770818 4.050045 5.064186 0.543734 -12.488926 4.461202 4.278717 
-8.774022 73.751663 10.696276 -9.473225 -0.292354 -3.710989 33.320206 -6.080039 -3.832851 -3.836730 -0.976088 -2.705484 -27.998352 -4.124391 1.655099 -0.757597 -5.008982 -24.416189 25.663544 30.000000 2.673762 39.877785 -36.158161 -45.000000 -33.454109 5.000000 -45.000000 -21.094505 28.066217 30.945429 -7.237856 -30.000000 2.161143 -30.371506 18.858271 -45.000000 15.706712 -5.000000 -45.000000 42.855259 -30.000000 -4.651056 15.265293 10.661280 14.542034 6.464262 -7.852969 -1.266994 23.148186 -0.635991 -9.802670 10.748478 3.602642 2.485051 2.889868 5.299751 0.449936 -9.939342 4.574391 4.375501 
-9.369704 73.989830 10.452607 -9.081013 -0.292770 -2.109447 33.461555 -5.781376 -3.740522 -3.612389 -0.946784 -2.754303 -28.066929 -4.494173 1.820883 -0.783896 -5.010108 -25.269541 25.439907 30.000000 2.593028 38.854755 -36.099422 -45.000000 -33.192623 5.000000 -45.000000 -21.146229 26.368912 28.445137 -6.831061 -30.000000 2.123988 -26.587873 18.356428 -45.000000 12.478841 -5.000000 -45.000000 42.144669 -30.000000 -3.560893 14.503284 11.070838 12.997655 5.783603 -7.741168 -1.143182 23.627682 -0.728714 -9.770622 10.426144 3.993083 3.100832 1.522550 5.590363 0.362711 -5.591606 3.481875 5.368841 
-9.944791 74.241798 10.204836 -8.698166 -0.410145 -0.419981 33.575264 -5.330965 -3.581125 -3.398642 -0.897966 -2.783434 -28.111029 -4.899511 2.011802 -0.770000 -5.037200 -26.095385 24.923880 30.000000 2.501994 37.650177 -35.992184 -45.000000 -33.079460 5.000000 -45.000000 -21.062086 24.686323 25.752071 -6.318881 -30.000000 2.078312 -22.760166 17.531479 -45.000000 9.146989 -5.000000 -45.000000 40.945202 -30.000000 -2.522138 13.734818 11.560346 11.493261 5.112156 -7.606497 -1.010075 24.127035 -0.823710 -9.631256 10.109028 4.430703 3.967593 0.087981 5.883349 0.243900 -0.776729 2.277488 6.773583 
-10.492374 74.484825 9.948586 -8.280656 -0.370980 1.415986 33.662624 -5.024994 -3.409703 -3.243829 -0.849159 -2.783432 -28.093233 -5.232021 2.162223 -0.753885 -5.134708 -26.864630 24.075665 30.000000 2.424478 36.225410 -35.722881 -45.000000 -32.973083 5.000000 -45.000000 -20.809467 22.867025 22.712934 -5.979148 -30.000000 2.024342 -19.466787 15.973282 -37.839321 6.317779 -5.000000 -45.000000 39.268562 -30.000000 -1.624691 12.693898 11.933593 10.059646 4.810822 -7.488594 -0.965941 24.406595 -0.703234 -9.390255 9.747811 4.655238 4.794584 -1.315471 6.077458 0.112581 4.068017 1.329437 8.258943 
-10.998593 74.714355 9.679679 -7.797733 -0.077980 3.496091 33.704342 -4.907244 -3.223808 -3.157210 -0.810117 -2.763900 -27.981052 -5.464296 2.258203 -0.712392 -5.328961 -27.551855 22.750360 30.000000 2.375317 34.503910 -35.192215 -45.000000 -32.913742 5.000000 -45.000000 -20.314552 20.864454 19.154594 -5.874099 -30.000000 1.951153 -16.968348 13.773027 -30.626743 4.631122 -5.000000 -45.000000 36.854057 -28.746252 -1.001750 11.236409 12.117028 8.720981 5.045495 -7.391395 -0.987627 24.503679 -0.270480 -8.995152 9.322263 4.549510 5.565080 -2.672821 6.120345 -0.042041 8.815411 0.709412 9.916022 
